<svg xmlns="http://www.w3.org/2000/svg" viewBox="0 0 492.08 134"><defs><style>.cls-1,.cls-2{fill:#91c27d;}.cls-2{font-size:72px;font-family:Roboto-Black, Roboto;font-weight:800;}.cls-3{letter-spacing:-0.01em;}.cls-4{letter-spacing:-0.01em;}</style></defs><g id="Layer_2" data-name="Layer 2"><g id="Layer_2-2" data-name="Layer 2"><path class="cls-1" d="M30.78,134a25.24,25.24,0,0,1-2.7-.92,10.57,10.57,0,0,1-6.37-10.25c0-8,0-16,0-23.94a3.3,3.3,0,0,0-1.11-2.61q-9.1-9-18.15-18.12c-3.29-3.3-3.29-6.77,0-10.06C4.21,66.34,6,64.58,7.73,62.83c2.92-2.88,6.57-2.88,9.49,0,1.4,1.38,2.73,2.82,4.09,4.23l.4-.11V20c0-4.65,1.89-8.21,6.14-10.23a18,18,0,0,1,4.54-1.06,13.84,13.84,0,0,1,2.34,0c0-.93,0-1.75,0-2.57a6.29,6.29,0,0,1,12.57.12c0,.74,0,1.48,0,2.33h9.12c0-.79,0-1.57,0-2.34A6.29,6.29,0,0,1,69,6.24c0,.74,0,1.47,0,2.31h9.11c0-.72,0-1.48,0-2.25a6.29,6.29,0,1,1,12.57,0c0,.73,0,1.47,0,2.29h9.1c0-.77,0-1.54,0-2.31A6.26,6.26,0,0,1,105.91,0a6.33,6.33,0,0,1,6.46,6.06c0,.81,0,1.63,0,2.48,1.47.11,2.82.11,4.14.32a10.21,10.21,0,0,1,8.77,9.79c.16,8.46.07,16.92.08,25.38,0,1.14,0,2.27,0,3.4,0,1.35-.8,2.18-1.93,2.18a2,2,0,0,1-2-2.16c0-4,0-7.94,0-11.91V34.39H25.63v1.25q0,17.2,0,34.41a2.42,2.42,0,0,0,.41,1.56c3.72,3.8,7.5,7.54,11.08,11.12a24.1,24.1,0,0,1,2.72-.32q33.71,0,67.39,0a9.25,9.25,0,0,1,1.18,0,1.93,1.93,0,0,1,.21,3.8,6.75,6.75,0,0,1-1.56.09H40.81c.47.51.76.85,1.07,1.16,4.74,4.75,9.48,9.52,14.26,14.24a3.48,3.48,0,0,1,1.13,2.77c-.05,3.14-.06,6.28,0,9.42a4.09,4.09,0,0,0,.83,2,19.91,19.91,0,0,0,1.62,1.7,1.9,1.9,0,0,1,0,2.8,2,2,0,0,1-2.72,0,.34.34,0,0,1-.09-.08c-1.51-2.33-3.75-2.59-6.27-2.41-2.21.16-4.45,0-6.67,0a3.58,3.58,0,0,1-2.89-1.18c-4.69-4.75-9.43-9.44-14.14-14.18a7.83,7.83,0,0,1-.8-1.2l-.41.28c0,.37-.08.73-.08,1.1q0,9.94,0,19.89c0,4.66,2.75,7.4,7.4,7.4q32.13,0,64.25,0c.35,0,.7,0,1,0,1.1,0,2.12.07,2.61,1.27s-.27,1.95-1.07,2.66ZM34.65,12.72c-5.59-.93-9.31,2.53-9,7.67.13,2.53,0,5.06,0,7.59v2.31h95.72c0-.39.08-.73.08-1.06,0-3.19,0-6.37,0-9.55-.05-4.95-4.06-8-9.05-6.9,0,.76,0,1.54,0,2.32A6.28,6.28,0,0,1,106,21.24,6.21,6.21,0,0,1,99.8,15c0-.76,0-1.53,0-2.31h-9.1c0,.92,0,1.75,0,2.57a6.28,6.28,0,0,1-6.36,6,6.21,6.21,0,0,1-6.2-6.13c0-.81,0-1.63,0-2.44H69c0,.87,0,1.64,0,2.42a6.28,6.28,0,0,1-12.56,0c0-.81,0-1.62,0-2.45H47.81c-.58,2.1-.83,4.18-1.74,5.91-1,2-3.07,2.73-5.34,2.65C36.87,21.1,35.08,18.62,34.65,12.72ZM12.41,82.2l30.73,30.74,3-3.06L15.44,79.19Zm6.09-6.06,30.7,30.7,3.06-3L21.58,73.17ZM18.7,70c-1.52-1.54-3.06-3.19-4.7-4.74a2.17,2.17,0,0,0-3.18.09c-2.09,2-4.16,4.1-6.18,6.2a2.19,2.19,0,0,0-.11,3.08c1.58,1.67,3.27,3.23,4.79,4.72Zm89.76-59.29c0-1.39,0-2.79,0-4.18a2.41,2.41,0,0,0-2.39-2.57,2.37,2.37,0,0,0-2.34,2.59c0,2.75,0,5.49,0,8.24a2.27,2.27,0,0,0,2.35,2.54,2.36,2.36,0,0,0,2.37-2.56C108.49,13.39,108.46,12,108.46,10.68Zm-65.08,0c0-1.39,0-2.79,0-4.18a2.36,2.36,0,1,0-4.71,0q-.06,4.19,0,8.37a2.32,2.32,0,0,0,2.42,2.5,2.29,2.29,0,0,0,2.29-2.47C43.4,13.43,43.38,12,43.38,10.64Zm17-.11c0,1.44,0,2.88,0,4.31a2.31,2.31,0,0,0,2.32,2.46,2.29,2.29,0,0,0,2.39-2.39c0-2.83,0-5.66,0-8.5a2.36,2.36,0,0,0-2.32-2.48,2.38,2.38,0,0,0-2.39,2.55C60.32,7.83,60.35,9.18,60.35,10.53Zm21.69.2v4.18a2.36,2.36,0,1,0,4.71.06c0-2.87,0-5.75,0-8.62a2.35,2.35,0,1,0-4.7.06C82,7.85,82,9.29,82,10.73ZM53.26,109.09l-4.83,4.85h4.83Z"/><path class="cls-1" d="M106.42,134c-1-.57-1.66-1.36-1.27-2.56s1.4-1.39,2.53-1.38c2.31,0,4.62,0,6.93,0a6.64,6.64,0,0,0,6.81-6.65c.06-2,0-3.92,0-5.88V56.83a8.49,8.49,0,0,1,.12-1.82,1.92,1.92,0,0,1,3.73.15,9.17,9.17,0,0,1,.07,1.57v65.55c0,6.31-2.73,9.89-8.8,11.56-.07,0-.13.11-.2.16Z"/><path class="cls-1" d="M73.57,69.36H107.2a6.26,6.26,0,0,1,1.3,0,1.84,1.84,0,0,1,1.65,2,1.82,1.82,0,0,1-1.83,1.84,9.2,9.2,0,0,1-1,0H39.76a9,9,0,0,1-1,0,1.94,1.94,0,0,1-.07-3.87,7,7,0,0,1,1.3,0Z"/><path class="cls-1" d="M73.53,43.38H107a11.54,11.54,0,0,1,1.44,0,1.75,1.75,0,0,1,1.68,1.69,1.78,1.78,0,0,1-1.41,2.06,5.15,5.15,0,0,1-1.42.13q-33.75,0-67.5,0a5.71,5.71,0,0,1-1.55-.16,1.91,1.91,0,0,1,.34-3.72,11.54,11.54,0,0,1,1.44,0Z"/><path class="cls-1" d="M73.58,60.28H40c-2.12,0-3.07-.62-3.05-2s1-1.93,3.12-1.93h67.1c2.13,0,3.05.61,3,2s-.89,1.92-3,1.92Z"/><path class="cls-1" d="M85.6,95.38h21.46a8.08,8.08,0,0,1,1.56.09,1.92,1.92,0,0,1-.05,3.77,9.85,9.85,0,0,1-1.44.06q-21.66,0-43.31,0c-.22,0-.44,0-.66,0-1.56,0-2.4-.74-2.38-2s.86-1.93,2.44-1.93C70.68,95.37,78.14,95.38,85.6,95.38Z"/><text class="cls-2" transform="translate(141.6 88.04)">S<tspan class="cls-3" x="45.07" y="0">a</tspan><tspan class="cls-4" x="82.76" y="0">v</tspan><tspan x="119.5" y="0">eNotes</tspan></text></g></g></svg>